<?xml version="1.0" encoding="UTF-8" standalone="no"?>
<!DOCTYPE svg PUBLIC "-//W3C//DTD SVG 1.1//EN"
 "http://www.w3.org/Graphics/SVG/1.1/DTD/svg11.dtd">
<!-- Generated by graphviz version 12.1.2 (20240928.0832)
 -->
<!-- Title: f407_f103_can_bus Pages: 1 -->
<svg width="1449pt" height="1623pt"
 viewBox="0.00 0.00 1449.05 1623.40" xmlns="http://www.w3.org/2000/svg" xmlns:xlink="http://www.w3.org/1999/xlink">
<g id="graph0" class="graph" transform="scale(1 1) rotate(0) translate(25.2 1598.2)">
<title>f407_f103_can_bus</title>
<polygon fill="#ffffff" stroke="none" points="-25.2,25.2 -25.2,-1598.2 1423.85,-1598.2 1423.85,25.2 -25.2,25.2"/>
<text text-anchor="middle" x="699.32" y="-1548.1" font-family="Microsoft YaHei" font-size="22.00">STM32F407ZGT6 + STM32F103RCT6 双节点 CAN 接线图</text>
<text text-anchor="middle" x="699.32" y="-1518.1" font-family="Microsoft YaHei" font-size="22.00">CAN1 500 kbps，两端各 120Ω，共地，双绞线互联</text>
<g id="clust1" class="cluster">
<title>cluster_f407</title>
<path fill="#e3f2fd" stroke="#1565c0" d="M45.87,-304C45.87,-304 1035.96,-304 1035.96,-304 1041.96,-304 1047.96,-310 1047.96,-316 1047.96,-316 1047.96,-580 1047.96,-580 1047.96,-586 1041.96,-592 1035.96,-592 1035.96,-592 45.87,-592 45.87,-592 39.87,-592 33.87,-586 33.87,-580 33.87,-580 33.87,-316 33.87,-316 33.87,-310 39.87,-304 45.87,-304"/>
<text text-anchor="middle" x="540.92" y="-567.1" font-family="Microsoft YaHei" font-size="22.00">节点 1：STM32F407ZGT6（ecu1）</text>
</g>
<g id="clust2" class="cluster">
<title>cluster_bus</title>
<path fill="#f3e5f5" stroke="#6a1b9a" d="M514.39,-600C514.39,-600 1378.65,-600 1378.65,-600 1384.65,-600 1390.65,-606 1390.65,-612 1390.65,-612 1390.65,-918 1390.65,-918 1390.65,-924 1384.65,-930 1378.65,-930 1378.65,-930 514.39,-930 514.39,-930 508.39,-930 502.39,-924 502.39,-918 502.39,-918 502.39,-612 502.39,-612 502.39,-606 508.39,-600 514.39,-600"/>
<text text-anchor="middle" x="946.52" y="-905.1" font-family="Microsoft YaHei" font-size="22.00">CAN 总线：CANH / CANL 双绞线 + 公共 GND</text>
</g>
<g id="clust3" class="cluster">
<title>cluster_f103</title>
<path fill="#e0f2f1" stroke="#00695c" d="M460.03,-8C460.03,-8 1371.75,-8 1371.75,-8 1377.75,-8 1383.75,-14 1383.75,-20 1383.75,-20 1383.75,-284 1383.75,-284 1383.75,-290 1377.75,-296 1371.75,-296 1371.75,-296 460.03,-296 460.03,-296 454.03,-296 448.03,-290 448.03,-284 448.03,-284 448.03,-20 448.03,-20 448.03,-14 454.03,-8 460.03,-8"/>
<text text-anchor="middle" x="915.89" y="-271.1" font-family="Microsoft YaHei" font-size="22.00">节点 2：STM32F103RCT6（ecu2）</text>
</g>
<g id="clust4" class="cluster">
<title>cluster_canable</title>
<path fill="#eceff1" stroke="#455a64" stroke-dasharray="5,2" d="M20.89,-886C20.89,-886 317.39,-886 317.39,-886 323.39,-886 329.39,-892 329.39,-898 329.39,-898 329.39,-1006 329.39,-1006 329.39,-1012 323.39,-1018 317.39,-1018 317.39,-1018 20.89,-1018 20.89,-1018 14.89,-1018 8.89,-1012 8.89,-1006 8.89,-1006 8.89,-898 8.89,-898 8.89,-892 14.89,-886 20.89,-886"/>
<text text-anchor="middle" x="169.14" y="-993.1" font-family="Microsoft YaHei" font-size="22.00">可选：CANable / PC 抓包节点</text>
</g>
<g id="clust5" class="cluster">
<title>cluster_notes</title>
<path fill="#fafafa" stroke="#37474f" d="M20,-1026C20,-1026 317.28,-1026 317.28,-1026 323.28,-1026 329.28,-1032 329.28,-1038 329.28,-1038 329.28,-1485 329.28,-1485 329.28,-1491 323.28,-1497 317.28,-1497 317.28,-1497 20,-1497 20,-1497 14,-1497 8,-1491 8,-1485 8,-1485 8,-1038 8,-1038 8,-1032 14,-1026 20,-1026"/>
<text text-anchor="middle" x="168.64" y="-1472.1" font-family="Microsoft YaHei" font-size="22.00">CubeMX / 固件验收参数</text>
</g>
<!-- F407_PWR -->
<g id="node1" class="node">
<title>F407_PWR</title>
<ellipse fill="#ffffff" stroke="#495057" cx="168.64" cy="-343" rx="91.77" ry="31.48"/>
<text text-anchor="middle" x="168.64" y="-348.1" font-family="Microsoft YaHei" font-size="12.00">F407 3.3V / GND</text>
<text text-anchor="middle" x="168.64" y="-331.6" font-family="Microsoft YaHei" font-size="12.00">USB 或 ST&#45;Link 供电</text>
</g>
<!-- SN1 -->
<g id="node4" class="node">
<title>SN1</title>
<ellipse fill="#e8f5e9" stroke="#2e7d32" stroke-width="2" cx="593.67" cy="-464" rx="122.53" ry="43.15"/>
<text text-anchor="middle" x="593.67" y="-477.35" font-family="Microsoft YaHei" font-size="12.00">SN65HVD230 #1</text>
<text text-anchor="middle" x="593.67" y="-460.85" font-family="Microsoft YaHei" font-size="12.00">VCC=3.3V &#160;GND &#160;RS&#45;&gt;GND</text>
<text text-anchor="middle" x="593.67" y="-444.35" font-family="Microsoft YaHei" font-size="12.00">TXD&lt;&#45;PA12 &#160;RXD&#45;&gt;PA11</text>
</g>
<!-- F407_PWR&#45;&gt;SN1 -->
<g id="edge7" class="edge">
<title>F407_PWR&#45;&gt;SN1</title>
<path fill="none" stroke="#2e7d32" stroke-width="2" d="M260.85,-341.95C309.66,-343.7 370.22,-349.63 422.03,-366 459.99,-378 498.76,-399.38 529.72,-419.12"/>
<polygon fill="#2e7d32" stroke="#2e7d32" stroke-width="2" points="527.98,-421.12 535.7,-422.99 530.83,-416.71 527.98,-421.12"/>
<text text-anchor="middle" x="388.65" y="-370.55" font-family="Microsoft YaHei" font-size="11.00">3.3V / GND</text>
</g>
<!-- GND_BUS -->
<g id="node10" class="node">
<title>GND_BUS</title>
<ellipse fill="#cfd8dc" stroke="#495057" cx="593.67" cy="-734" rx="63.13" ry="31.48"/>
<text text-anchor="middle" x="593.67" y="-739.1" font-family="Microsoft YaHei" font-size="12.00">公共 GND 线</text>
<text text-anchor="middle" x="593.67" y="-722.6" font-family="Microsoft YaHei" font-size="12.00">所有节点共地</text>
</g>
<!-- F407_PWR&#45;&gt;GND_BUS -->
<g id="edge17" class="edge">
<title>F407_PWR&#45;&gt;GND_BUS</title>
<path fill="none" stroke="#424242" stroke-width="2" stroke-dasharray="5,2" d="M258.25,-350.13C285.12,-356.84 312.08,-369.06 329.39,-391 360.75,-430.76 318.47,-811.23 355.28,-846 376.85,-866.37 397.42,-862.57 422.03,-846 447.5,-828.86 425.62,-802.99 448.03,-782 468.32,-763 496.31,-751.51 522.27,-744.57"/>
<polygon fill="#424242" stroke="#424242" stroke-width="2" points="522.89,-747.12 529.54,-742.76 521.63,-742.02 522.89,-747.12"/>
<text text-anchor="middle" x="388.65" y="-864.44" font-family="Microsoft YaHei" font-size="11.00">GND</text>
</g>
<!-- F407_TX -->
<g id="node2" class="node">
<title>F407_TX</title>
<ellipse fill="#bbdefb" stroke="#495057" cx="168.64" cy="-438" rx="49.34" ry="31.48"/>
<text text-anchor="middle" x="168.64" y="-443.1" font-family="Microsoft YaHei" font-size="12.00">PA12</text>
<text text-anchor="middle" x="168.64" y="-426.6" font-family="Microsoft YaHei" font-size="12.00">CAN1_TX</text>
</g>
<!-- F407_TX&#45;&gt;SN1 -->
<g id="edge8" class="edge">
<title>F407_TX&#45;&gt;SN1</title>
<path fill="none" stroke="#1565c0" stroke-width="2" d="M218.17,-440.98C277.17,-444.61 379.11,-450.87 461.75,-455.95"/>
<polygon fill="#1565c0" stroke="#1565c0" stroke-width="2" points="461.57,-458.57 469.22,-456.41 461.89,-453.33 461.57,-458.57"/>
<text text-anchor="middle" x="388.65" y="-457.88" font-family="Microsoft YaHei" font-size="11.00">PA12 &#45;&gt; TXD</text>
</g>
<!-- F407_RX -->
<g id="node3" class="node">
<title>F407_RX</title>
<ellipse fill="#bbdefb" stroke="#495057" cx="990.09" cy="-464" rx="49.87" ry="31.48"/>
<text text-anchor="middle" x="990.09" y="-469.1" font-family="Microsoft YaHei" font-size="12.00">PA11</text>
<text text-anchor="middle" x="990.09" y="-452.6" font-family="Microsoft YaHei" font-size="12.00">CAN1_RX</text>
</g>
<!-- SN1&#45;&gt;F407_RX -->
<g id="edge9" class="edge">
<title>SN1&#45;&gt;F407_RX</title>
<path fill="none" stroke="#1565c0" stroke-width="2" d="M717.03,-464C787.8,-464 873.65,-464 929.74,-464"/>
<polygon fill="#1565c0" stroke="#1565c0" stroke-width="2" points="929.67,-466.63 937.17,-464 929.67,-461.38 929.67,-466.63"/>
<text text-anchor="middle" x="799.43" y="-468.55" font-family="Microsoft YaHei" font-size="11.00">RXD &#45;&gt; PA11</text>
</g>
<!-- BUS_H_L -->
<g id="node6" class="node">
<title>BUS_H_L</title>
<ellipse fill="#d1c4e9" stroke="#495057" cx="990.09" cy="-639" rx="56.77" ry="31.48"/>
<text text-anchor="middle" x="990.09" y="-644.1" font-family="Microsoft YaHei" font-size="12.00">CANH 左端</text>
<text text-anchor="middle" x="990.09" y="-627.6" font-family="Microsoft YaHei" font-size="12.00">接 F407 侧</text>
</g>
<!-- SN1&#45;&gt;BUS_H_L -->
<g id="edge10" class="edge">
<title>SN1&#45;&gt;BUS_H_L</title>
<path fill="none" stroke="#6a1b9a" stroke-width="3" d="M661.48,-500.87C715.93,-530.05 795.36,-570.62 867.56,-600 886.77,-607.82 908.18,-615.13 927.61,-621.27"/>
<polygon fill="#6a1b9a" stroke="#6a1b9a" stroke-width="3" points="926.83,-623.77 934.77,-623.49 928.38,-618.76 926.83,-623.77"/>
<text text-anchor="middle" x="799.43" y="-588.33" font-family="Microsoft YaHei" font-size="11.00">CANH</text>
</g>
<!-- BUS_L_L -->
<g id="node7" class="node">
<title>BUS_L_L</title>
<ellipse fill="#d1c4e9" stroke="#495057" cx="990.09" cy="-853" rx="54.65" ry="31.48"/>
<text text-anchor="middle" x="990.09" y="-858.1" font-family="Microsoft YaHei" font-size="12.00">CANL 左端</text>
<text text-anchor="middle" x="990.09" y="-841.6" font-family="Microsoft YaHei" font-size="12.00">接 F407 侧</text>
</g>
<!-- SN1&#45;&gt;BUS_L_L -->
<g id="edge11" class="edge">
<title>SN1&#45;&gt;BUS_L_L</title>
<path fill="none" stroke="#8e24aa" stroke-width="3" d="M639.72,-504.74C666.72,-529.52 701.49,-562.06 731.31,-592 778.42,-639.29 799.59,-644.54 833.56,-702 858.09,-743.5 834.46,-769.95 867.56,-805 883.27,-821.64 905.47,-832.62 926.6,-839.81"/>
<polygon fill="#8e24aa" stroke="#8e24aa" stroke-width="3" points="925.57,-842.24 933.52,-841.98 927.14,-837.23 925.57,-842.24"/>
<text text-anchor="middle" x="799.43" y="-706.55" font-family="Microsoft YaHei" font-size="11.00">CANL</text>
</g>
<!-- F407_DISABLE -->
<g id="node5" class="node">
<title>F407_DISABLE</title>
<polygon fill="#fff3cd" stroke="#ef6c00" stroke-width="2" points="289.4,-546.26 41.87,-546.26 41.87,-501.74 295.4,-501.74 295.4,-540.26 289.4,-546.26"/>
<polyline fill="none" stroke="#ef6c00" stroke-width="2" points="289.4,-546.26 289.4,-540.26"/>
<polyline fill="none" stroke="#ef6c00" stroke-width="2" points="295.4,-540.26 289.4,-540.26"/>
<text text-anchor="middle" x="168.64" y="-529.1" font-family="Microsoft YaHei" font-size="12.00">F407 板载 CAN 收发器必须先断开/禁用，</text>
<text text-anchor="middle" x="168.64" y="-512.6" font-family="Microsoft YaHei" font-size="12.00">避免与外部 SN65HVD230 同时驱动 PA11。</text>
</g>
<!-- F407_DISABLE&#45;&gt;SN1 -->
<g id="edge22" class="edge">
<title>F407_DISABLE&#45;&gt;SN1</title>
<path fill="none" stroke="#ef6c00" stroke-dasharray="1,5" d="M296.28,-506.04C351.38,-498.22 415.71,-489.1 470.32,-481.35"/>
<polygon fill="#ef6c00" stroke="#ef6c00" points="470.44,-483.99 477.5,-480.34 469.71,-478.79 470.44,-483.99"/>
<text text-anchor="middle" x="388.65" y="-502.14" font-family="Microsoft YaHei" font-size="11.00">先确认</text>
</g>
<!-- BUS_H_R -->
<g id="node8" class="node">
<title>BUS_H_R</title>
<ellipse fill="#d1c4e9" stroke="#495057" cx="1325.88" cy="-680" rx="56.77" ry="31.48"/>
<text text-anchor="middle" x="1325.88" y="-685.1" font-family="Microsoft YaHei" font-size="12.00">CANH 右端</text>
<text text-anchor="middle" x="1325.88" y="-668.6" font-family="Microsoft YaHei" font-size="12.00">接 F103 侧</text>
</g>
<!-- BUS_H_L&#45;&gt;BUS_H_R -->
<g id="edge1" class="edge">
<title>BUS_H_L&#45;&gt;BUS_H_R</title>
<path fill="none" stroke="#6a1b9a" stroke-width="3" d="M1047.25,-638.5C1096.99,-638.93 1171.39,-641.75 1235.11,-653 1245.25,-654.79 1255.85,-657.34 1266.07,-660.17"/>
<polygon fill="#6a1b9a" stroke="#6a1b9a" stroke-width="3" points="1265.1,-662.62 1273.04,-662.19 1266.57,-657.58 1265.1,-662.62"/>
<text text-anchor="middle" x="1190.86" y="-657.55" font-family="Microsoft YaHei" font-size="11.00">CANH（双绞线）</text>
</g>
<!-- BUS_L_R -->
<g id="node9" class="node">
<title>BUS_L_R</title>
<ellipse fill="#d1c4e9" stroke="#495057" cx="1325.88" cy="-800" rx="54.65" ry="31.48"/>
<text text-anchor="middle" x="1325.88" y="-805.1" font-family="Microsoft YaHei" font-size="12.00">CANL 右端</text>
<text text-anchor="middle" x="1325.88" y="-788.6" font-family="Microsoft YaHei" font-size="12.00">接 F103 侧</text>
</g>
<!-- BUS_L_L&#45;&gt;BUS_L_R -->
<g id="edge2" class="edge">
<title>BUS_L_L&#45;&gt;BUS_L_R</title>
<path fill="none" stroke="#8e24aa" stroke-width="3" d="M1043.24,-844.72C1102.07,-835.38 1197.75,-820.19 1261.01,-810.14"/>
<polygon fill="#8e24aa" stroke="#8e24aa" stroke-width="3" points="1261.34,-812.75 1268.33,-808.98 1260.51,-807.56 1261.34,-812.75"/>
<text text-anchor="middle" x="1190.86" y="-832.64" font-family="Microsoft YaHei" font-size="11.00">CANL（双绞线）</text>
</g>
<!-- TERM1 -->
<g id="node11" class="node">
<title>TERM1</title>
<ellipse fill="#ffcdd2" stroke="#c62828" stroke-width="3" cx="593.67" cy="-841" rx="83.28" ry="43.15"/>
<text text-anchor="middle" x="593.67" y="-854.35" font-family="Microsoft YaHei" font-size="12.00">120Ω #1</text>
<text text-anchor="middle" x="593.67" y="-837.85" font-family="Microsoft YaHei" font-size="12.00">F407 物理端</text>
<text text-anchor="middle" x="593.67" y="-821.35" font-family="Microsoft YaHei" font-size="12.00">跨接 CANH&#45;CANL</text>
</g>
<!-- TERM1&#45;&gt;BUS_H_L -->
<g id="edge3" class="edge">
<title>TERM1&#45;&gt;BUS_H_L</title>
<path fill="none" stroke="#c62828" stroke-width="3" d="M660.19,-813.61C682.91,-803.75 708.41,-792.27 731.31,-781 777.8,-758.12 792.98,-757.22 833.56,-725 851.31,-710.91 848.97,-699.96 867.56,-687 889.06,-672.02 915.89,-660.79 938.88,-652.97"/>
<text text-anchor="middle" x="799.43" y="-769.45" font-family="Microsoft YaHei" font-size="11.00">跨接</text>
</g>
<!-- TERM1&#45;&gt;BUS_L_L -->
<g id="edge4" class="edge">
<title>TERM1&#45;&gt;BUS_L_L</title>
<path fill="none" stroke="#c62828" stroke-width="3" d="M677.83,-843.53C755.36,-845.89 868.7,-849.34 935.08,-851.36"/>
<text text-anchor="middle" x="799.43" y="-852.62" font-family="Microsoft YaHei" font-size="11.00">跨接</text>
</g>
<!-- TERM2 -->
<g id="node12" class="node">
<title>TERM2</title>
<ellipse fill="#ffcdd2" stroke="#c62828" stroke-width="3" cx="990.09" cy="-746" rx="83.28" ry="43.15"/>
<text text-anchor="middle" x="990.09" y="-759.35" font-family="Microsoft YaHei" font-size="12.00">120Ω #2</text>
<text text-anchor="middle" x="990.09" y="-742.85" font-family="Microsoft YaHei" font-size="12.00">F103 物理端</text>
<text text-anchor="middle" x="990.09" y="-726.35" font-family="Microsoft YaHei" font-size="12.00">跨接 CANH&#45;CANL</text>
</g>
<!-- TERM2&#45;&gt;BUS_H_R -->
<g id="edge5" class="edge">
<title>TERM2&#45;&gt;BUS_H_R</title>
<path fill="none" stroke="#c62828" stroke-width="3" d="M1069.35,-730.53C1131.68,-718.2 1217.26,-701.28 1271.82,-690.49"/>
<text text-anchor="middle" x="1190.86" y="-719.53" font-family="Microsoft YaHei" font-size="11.00">跨接</text>
</g>
<!-- TERM2&#45;&gt;BUS_L_R -->
<g id="edge6" class="edge">
<title>TERM2&#45;&gt;BUS_L_R</title>
<path fill="none" stroke="#c62828" stroke-width="3" d="M1071.04,-758.93C1133.72,-769.07 1219.11,-782.89 1273.12,-791.63"/>
<text text-anchor="middle" x="1190.86" y="-788.59" font-family="Microsoft YaHei" font-size="11.00">跨接</text>
</g>
<!-- F103_PWR -->
<g id="node13" class="node">
<title>F103_PWR</title>
<ellipse fill="#ffffff" stroke="#495057" cx="593.67" cy="-47" rx="91.77" ry="31.48"/>
<text text-anchor="middle" x="593.67" y="-52.1" font-family="Microsoft YaHei" font-size="12.00">F103 3.3V / GND</text>
<text text-anchor="middle" x="593.67" y="-35.6" font-family="Microsoft YaHei" font-size="12.00">USB 或 ST&#45;Link 供电</text>
</g>
<!-- F103_PWR&#45;&gt;GND_BUS -->
<g id="edge18" class="edge">
<title>F103_PWR&#45;&gt;GND_BUS</title>
<path fill="none" stroke="#424242" stroke-width="2" stroke-dasharray="5,2" d="M507.81,-58.27C485.27,-65.32 463.08,-76.7 448.03,-95 360.32,-201.64 398.7,-266.01 411.41,-403.5 419.58,-491.96 405,-522.28 448.03,-600 471.58,-642.54 513.59,-678.99 546.47,-703.09"/>
<polygon fill="#424242" stroke="#424242" stroke-width="2" points="544.53,-704.93 552.15,-707.18 547.6,-700.67 544.53,-704.93"/>
<text text-anchor="middle" x="388.65" y="-393.05" font-family="Microsoft YaHei" font-size="11.00">GND</text>
</g>
<!-- SN2 -->
<g id="node16" class="node">
<title>SN2</title>
<ellipse fill="#e8f5e9" stroke="#2e7d32" stroke-width="2" cx="990.09" cy="-182" rx="122.53" ry="43.15"/>
<text text-anchor="middle" x="990.09" y="-195.35" font-family="Microsoft YaHei" font-size="12.00">SN65HVD230 #2</text>
<text text-anchor="middle" x="990.09" y="-178.85" font-family="Microsoft YaHei" font-size="12.00">VCC=3.3V &#160;GND &#160;RS&#45;&gt;GND</text>
<text text-anchor="middle" x="990.09" y="-162.35" font-family="Microsoft YaHei" font-size="12.00">TXD&lt;&#45;PA12 &#160;RXD&#45;&gt;PA11</text>
</g>
<!-- F103_PWR&#45;&gt;SN2 -->
<g id="edge12" class="edge">
<title>F103_PWR&#45;&gt;SN2</title>
<path fill="none" stroke="#2e7d32" stroke-width="2" d="M659.8,-69.29C722.72,-90.83 818.85,-123.73 891.03,-148.44"/>
<polygon fill="#2e7d32" stroke="#2e7d32" stroke-width="2" points="889.79,-150.79 897.74,-150.73 891.49,-145.82 889.79,-150.79"/>
<text text-anchor="middle" x="799.43" y="-131.14" font-family="Microsoft YaHei" font-size="11.00">3.3V / GND</text>
</g>
<!-- F103_TX -->
<g id="node14" class="node">
<title>F103_TX</title>
<ellipse fill="#b2dfdb" stroke="#495057" cx="593.67" cy="-142" rx="49.34" ry="31.48"/>
<text text-anchor="middle" x="593.67" y="-147.1" font-family="Microsoft YaHei" font-size="12.00">PA12</text>
<text text-anchor="middle" x="593.67" y="-130.6" font-family="Microsoft YaHei" font-size="12.00">CAN1_TX</text>
</g>
<!-- F103_TX&#45;&gt;SN2 -->
<g id="edge13" class="edge">
<title>F103_TX&#45;&gt;SN2</title>
<path fill="none" stroke="#00695c" stroke-width="2" d="M642.75,-146.09C691.01,-150.28 767.48,-157.13 833.56,-164 842.99,-164.98 852.74,-166.03 862.54,-167.1"/>
<polygon fill="#00695c" stroke="#00695c" stroke-width="2" points="862.02,-169.69 869.76,-167.9 862.6,-164.47 862.02,-169.69"/>
<text text-anchor="middle" x="799.43" y="-168.55" font-family="Microsoft YaHei" font-size="11.00">PA12 &#45;&gt; TXD</text>
</g>
<!-- F103_RX -->
<g id="node15" class="node">
<title>F103_RX</title>
<ellipse fill="#b2dfdb" stroke="#495057" cx="1325.88" cy="-182" rx="49.87" ry="31.48"/>
<text text-anchor="middle" x="1325.88" y="-187.1" font-family="Microsoft YaHei" font-size="12.00">PA11</text>
<text text-anchor="middle" x="1325.88" y="-170.6" font-family="Microsoft YaHei" font-size="12.00">CAN1_RX</text>
</g>
<!-- SN2&#45;&gt;BUS_H_R -->
<g id="edge15" class="edge">
<title>SN2&#45;&gt;BUS_H_R</title>
<path fill="none" stroke="#6a1b9a" stroke-width="3" d="M1039.39,-222.22C1062.86,-242.98 1090.66,-269.48 1112.61,-296 1204.67,-407.21 1276.76,-564.22 1308,-638.26"/>
<polygon fill="#6a1b9a" stroke="#6a1b9a" stroke-width="3" points="1305.42,-638.89 1310.73,-644.8 1310.26,-636.87 1305.42,-638.89"/>
<text text-anchor="middle" x="1190.86" y="-480.47" font-family="Microsoft YaHei" font-size="11.00">CANH</text>
</g>
<!-- SN2&#45;&gt;BUS_L_R -->
<g id="edge16" class="edge">
<title>SN2&#45;&gt;BUS_L_R</title>
<path fill="none" stroke="#8e24aa" stroke-width="3" d="M1046.78,-220.96C1070.79,-240.69 1096.91,-266.67 1112.61,-296 1155.8,-376.64 1111.1,-414.7 1146.61,-499 1172.48,-560.4 1204.97,-560.58 1235.11,-620 1257.69,-664.5 1246.07,-682.74 1269.11,-727 1275.55,-739.36 1284.09,-751.79 1292.55,-762.8"/>
<polygon fill="#8e24aa" stroke="#8e24aa" stroke-width="3" points="1290.37,-764.28 1297.09,-768.52 1294.48,-761.01 1290.37,-764.28"/>
<text text-anchor="middle" x="1190.86" y="-624.55" font-family="Microsoft YaHei" font-size="11.00">CANL</text>
</g>
<!-- SN2&#45;&gt;F103_RX -->
<g id="edge14" class="edge">
<title>SN2&#45;&gt;F103_RX</title>
<path fill="none" stroke="#00695c" stroke-width="2" d="M1113.48,-182C1165.29,-182 1223.26,-182 1265.37,-182"/>
<polygon fill="#00695c" stroke="#00695c" stroke-width="2" points="1265.2,-184.63 1272.7,-182 1265.2,-179.38 1265.2,-184.63"/>
<text text-anchor="middle" x="1190.86" y="-186.55" font-family="Microsoft YaHei" font-size="11.00">RXD &#45;&gt; PA11</text>
</g>
<!-- F103_DISABLE -->
<g id="node17" class="node">
<title>F103_DISABLE</title>
<polygon fill="#fff3cd" stroke="#ef6c00" stroke-width="2" points="725.31,-250.26 456.03,-250.26 456.03,-205.74 731.31,-205.74 731.31,-244.26 725.31,-250.26"/>
<polyline fill="none" stroke="#ef6c00" stroke-width="2" points="725.31,-250.26 725.31,-244.26"/>
<polyline fill="none" stroke="#ef6c00" stroke-width="2" points="731.31,-244.26 725.31,-244.26"/>
<text text-anchor="middle" x="593.67" y="-233.1" font-family="Microsoft YaHei" font-size="12.00">F103 板载 CAN 收发器/终接电阻必须先断开、</text>
<text text-anchor="middle" x="593.67" y="-216.6" font-family="Microsoft YaHei" font-size="12.00">移除跳线或拆掉 0Ω，避免双驱动和多余 120Ω。</text>
</g>
<!-- F103_DISABLE&#45;&gt;SN2 -->
<g id="edge23" class="edge">
<title>F103_DISABLE&#45;&gt;SN2</title>
<path fill="none" stroke="#ef6c00" stroke-dasharray="1,5" d="M732.06,-211.98C774.93,-206.98 821.95,-201.49 863.92,-196.6"/>
<polygon fill="#ef6c00" stroke="#ef6c00" points="864.15,-199.21 871.3,-195.74 863.54,-194 864.15,-199.21"/>
<text text-anchor="middle" x="799.43" y="-212.3" font-family="Microsoft YaHei" font-size="11.00">先确认</text>
</g>
<!-- CANABLE -->
<g id="node18" class="node">
<title>CANABLE</title>
<polygon fill="#ffffff" stroke="#495057" points="237.65,-971.76 103.62,-971.76 99.62,-967.76 99.62,-894.24 233.65,-894.24 237.65,-898.24 237.65,-971.76"/>
<polyline fill="none" stroke="#495057" points="233.65,-967.76 99.62,-967.76"/>
<polyline fill="none" stroke="#495057" points="233.65,-967.76 233.65,-894.24"/>
<polyline fill="none" stroke="#495057" points="233.65,-967.76 237.65,-971.76"/>
<text text-anchor="middle" x="168.64" y="-954.6" font-family="Microsoft YaHei" font-size="12.00">CANable slcan</text>
<text text-anchor="middle" x="168.64" y="-938.1" font-family="Microsoft YaHei" font-size="12.00">CANH / CANL / GND</text>
<text text-anchor="middle" x="168.64" y="-921.6" font-family="Microsoft YaHei" font-size="12.00">500 kbps</text>
<text text-anchor="middle" x="168.64" y="-905.1" font-family="Microsoft YaHei" font-size="12.00">内部 120Ω 跳线断开</text>
</g>
<!-- CANABLE&#45;&gt;BUS_H_R -->
<g id="edge19" class="edge">
<title>CANABLE&#45;&gt;BUS_H_R</title>
<path fill="none" stroke="#6a1b9a" stroke-width="2" stroke-dasharray="5,2" d="M238.07,-938.57C394.84,-949.61 791.24,-967.74 1112.61,-900 1169.99,-887.91 1194.63,-893.42 1235.11,-851 1266.95,-817.65 1247.29,-793.61 1269.11,-753 1275.85,-740.46 1284.67,-727.79 1293.3,-716.61"/>
<polygon fill="#6a1b9a" stroke="#6a1b9a" stroke-width="2" points="1295.35,-718.26 1297.94,-710.75 1291.23,-715 1295.35,-718.26"/>
<text text-anchor="middle" x="799.43" y="-947.74" font-family="Microsoft YaHei" font-size="11.00">CANH</text>
</g>
<!-- CANABLE&#45;&gt;BUS_L_R -->
<g id="edge20" class="edge">
<title>CANABLE&#45;&gt;BUS_L_R</title>
<path fill="none" stroke="#8e24aa" stroke-width="2" stroke-dasharray="5,2" d="M238,-957.43C416.51,-1016.7 905.68,-1149.72 1235.11,-958 1278.04,-933.02 1302.12,-879.01 1314.3,-841.12"/>
<polygon fill="#8e24aa" stroke="#8e24aa" stroke-width="2" points="1316.71,-842.22 1316.39,-834.28 1311.69,-840.68 1316.71,-842.22"/>
<text text-anchor="middle" x="799.43" y="-1062.32" font-family="Microsoft YaHei" font-size="11.00">CANL</text>
</g>
<!-- CANABLE&#45;&gt;GND_BUS -->
<g id="edge21" class="edge">
<title>CANABLE&#45;&gt;GND_BUS</title>
<path fill="none" stroke="#424242" stroke-width="2" stroke-dasharray="5,2" d="M234.1,-893.8C289.5,-861.14 372.22,-814.83 448.03,-782 473.75,-770.86 502.95,-760.72 528.35,-752.66"/>
<polygon fill="#424242" stroke="#424242" stroke-width="2" points="528.98,-755.21 535.36,-750.47 527.42,-750.2 528.98,-755.21"/>
<text text-anchor="middle" x="388.65" y="-827.72" font-family="Microsoft YaHei" font-size="11.00">GND</text>
</g>
<!-- NOTE_F407 -->
<g id="node19" class="node">
<title>NOTE_F407</title>
<polygon fill="#fff8e1" stroke="#f9a825" points="256.78,-1095.51 74.5,-1095.51 74.5,-1034.49 262.78,-1034.49 262.78,-1089.51 256.78,-1095.51"/>
<polyline fill="none" stroke="#f9a825" points="256.78,-1095.51 256.78,-1089.51"/>
<polyline fill="none" stroke="#f9a825" points="262.78,-1089.51 256.78,-1089.51"/>
<text text-anchor="middle" x="168.64" y="-1078.35" font-family="Microsoft YaHei" font-size="12.00">F407：APB1=42 MHz</text>
<text text-anchor="middle" x="168.64" y="-1061.85" font-family="Microsoft YaHei" font-size="12.00">Prescaler=6，BS1=11，BS2=2</text>
<text text-anchor="middle" x="168.64" y="-1045.35" font-family="Microsoft YaHei" font-size="12.00">500 kbps，采样点 85.7%</text>
</g>
<!-- NOTE_F103 -->
<g id="node20" class="node">
<title>NOTE_F103</title>
<polygon fill="#fff8e1" stroke="#f9a825" points="256.78,-1188.51 74.5,-1188.51 74.5,-1127.49 262.78,-1127.49 262.78,-1182.51 256.78,-1188.51"/>
<polyline fill="none" stroke="#f9a825" points="256.78,-1188.51 256.78,-1182.51"/>
<polyline fill="none" stroke="#f9a825" points="262.78,-1182.51 256.78,-1182.51"/>
<text text-anchor="middle" x="168.64" y="-1171.35" font-family="Microsoft YaHei" font-size="12.00">F103：APB1=36 MHz</text>
<text text-anchor="middle" x="168.64" y="-1154.85" font-family="Microsoft YaHei" font-size="12.00">Prescaler=4，BS1=15，BS2=2</text>
<text text-anchor="middle" x="168.64" y="-1138.35" font-family="Microsoft YaHei" font-size="12.00">500 kbps，采样点 88.9%</text>
</g>
<!-- NOTE_ACK -->
<g id="node21" class="node">
<title>NOTE_ACK</title>
<polygon fill="#e8f5e9" stroke="#2e7d32" points="281.15,-1281.51 50.12,-1281.51 50.12,-1220.49 287.15,-1220.49 287.15,-1275.51 281.15,-1281.51"/>
<polyline fill="none" stroke="#2e7d32" points="281.15,-1281.51 281.15,-1275.51"/>
<polyline fill="none" stroke="#2e7d32" points="287.15,-1275.51 281.15,-1275.51"/>
<text text-anchor="middle" x="168.64" y="-1264.35" font-family="Microsoft YaHei" font-size="12.00">两节点都在线时，发送帧才能收到 ACK。</text>
<text text-anchor="middle" x="168.64" y="-1247.85" font-family="Microsoft YaHei" font-size="12.00">先用 F407 发 0x123 控制 F103 LED，</text>
<text text-anchor="middle" x="168.64" y="-1231.35" font-family="Microsoft YaHei" font-size="12.00">再用 F103 发 0x123 反向验证。</text>
</g>
<!-- NOTE_TERM -->
<g id="node22" class="node">
<title>NOTE_TERM</title>
<polygon fill="#ffebee" stroke="#c62828" stroke-width="2" points="266.15,-1374.51 65.12,-1374.51 65.12,-1313.49 272.15,-1313.49 272.15,-1368.51 266.15,-1374.51"/>
<polyline fill="none" stroke="#c62828" stroke-width="2" points="266.15,-1374.51 266.15,-1368.51"/>
<polyline fill="none" stroke="#c62828" stroke-width="2" points="272.15,-1368.51 266.15,-1368.51"/>
<text text-anchor="middle" x="168.64" y="-1357.35" font-family="Microsoft YaHei" font-size="12.00">总线断电测 CANH&#45;CANL：</text>
<text text-anchor="middle" x="168.64" y="-1340.85" font-family="Microsoft YaHei" font-size="12.00">两端各 120Ω 时约 60Ω。</text>
<text text-anchor="middle" x="168.64" y="-1324.35" font-family="Microsoft YaHei" font-size="12.00">不要只在一个节点并联两个 120Ω。</text>
</g>
<!-- NOTE_GND -->
<g id="node23" class="node">
<title>NOTE_GND</title>
<polygon fill="#fff8e1" stroke="#f9a825" points="315.28,-1451.26 16,-1451.26 16,-1406.74 321.28,-1406.74 321.28,-1445.26 315.28,-1451.26"/>
<polyline fill="none" stroke="#f9a825" points="315.28,-1451.26 315.28,-1445.26"/>
<polyline fill="none" stroke="#f9a825" points="321.28,-1445.26 315.28,-1445.26"/>
<text text-anchor="middle" x="168.64" y="-1434.1" font-family="Microsoft YaHei" font-size="12.00">CANH、CANL、GND 和 3.3V 都要按各自模块连接；</text>
<text text-anchor="middle" x="168.64" y="-1417.6" font-family="Microsoft YaHei" font-size="12.00">F407、F103、SN65HVD230 和 CANable 必须共地。</text>
</g>
</g>
</svg>
